<?xml version="1.0" encoding="utf-8"?>
<!-- Generator: Adobe Illustrator 21.1.0, SVG Export Plug-In . SVG Version: 6.00 Build 0)  -->
<svg version="1.1" id="Слой_1" xmlns="http://www.w3.org/2000/svg" xmlns:xlink="http://www.w3.org/1999/xlink" x="0px" y="0px"
	 viewBox="0 0 229.1 35" style="enable-background:new 0 0 229.1 35;" xml:space="preserve">
<style type="text/css">
	.st0{fill:#FFFFFF;}
	.st1{fill:#FF5A5F;}
</style>
<title>logo-white</title>
<path class="st0" d="M65.1,2.2c9,0,16.4,7.3,16.4,16.3c0,3.9-1.4,7.6-3.9,10.6c-0.3,0.3-0.6,0.7-0.9,1c-3,3.1-7.2,4.8-11.5,4.8H48.7
	V2.1L65.1,2.2z M54.5,29.1h10.5c5.8,0,10.5-4.7,10.5-10.5S70.9,8,65.1,8H54.5V29.1z"/>
<path class="st0" d="M117.8,18.5c0,9.1-7.3,16.4-16.4,16.4c-9.1,0-16.4-7.3-16.4-16.4s7.3-16.4,16.4-16.4
	C110.5,2.1,117.8,9.5,117.8,18.5z M112,18.5c0-5.8-4.7-10.5-10.5-10.5c-5.8,0-10.5,4.7-10.5,10.5S95.6,29,101.5,29l0,0
	C107.3,29,112,24.3,112,18.5z"/>
<path class="st0" d="M154.2,2.1v32.8h-5.8V14l-5.8,4.4l-4.8,3.7l-4.8-3.7l-5.8-4.4v20.9h-5.9V2.1l5.8,4.5l10.5,8.1l10.6-8L154.2,2.1
	z"/>
<path class="st0" d="M191.6,2.1v32.8h-5.9V14l-5.8,4.4l-4.8,3.7l-4.8-3.7l-5.8-4.4v20.9h-5.9V2.1l5.9,4.5l10.5,8.1l10.5-8.1
	L191.6,2.1z"/>
<path class="st0" d="M196.3,34.9L196.3,34.9L196.3,34.9L196.3,34.9z M229.1,2.1l-12.7,16.4l-0.7,0.9v15.5h-5.9V19.5l-0.8-1
	L196.4,2.1h7.4l9,11.7l9-11.7L229.1,2.1z M229.1,34.9L229.1,34.9L229.1,34.9L229.1,34.9z"/>
<polygon class="st1" points="34.9,18.3 34.9,10.1 17.5,0 0,10.1 0,18.3 17.5,8.2 "/>
<polygon class="st1" points="34.9,29 34.9,20.8 17.5,10.7 17.5,10.7 0,20.8 0,29 17.5,18.9 "/>
<polygon class="st1" points="26.7,35 33.8,30.9 17.5,21.4 17.5,21.4 1.1,30.9 8.2,35 17.5,29.6 "/>
</svg>
